####
#
# OBJ File Generated by Meshlab
#
####
# Object tibial_plane.obj
#
# Vertices: 98
# Faces: 192
#
####
vn 0.000000 -6.283185 0.000000
v 0.000000 -0.000500 -0.010000
vn 0.000000 6.283185 0.000000
v 0.025500 0.000500 0.010000
vn 0.000000 0.000000 -6.283185
v 0.025500 0.000250 -0.020000
vn -3.141593 0.000000 -3.141593
v -0.051000 -0.000250 -0.020000
vn 1.570796 -1.570796 -1.570796
v 0.051000 -0.000500 -0.020000
vn -6.283185 0.000000 0.000000
v -0.051000 0.000000 0.010000
vn 3.141593 3.141593 0.000000
v 0.051000 0.000500 0.010000
vn 0.000000 6.283185 0.000000
v 0.025500 0.000500 -0.010000
vn 0.000000 3.141593 -3.141593
v -0.025500 0.000500 -0.020000
vn 0.000000 0.000000 -6.283183
v 0.000000 0.000250 -0.020000
vn 0.000000 0.000000 6.283185
v -0.025500 0.000000 0.020000
vn -3.141593 -3.141593 0.000000
v -0.051000 -0.000500 0.010000
vn 3.141593 0.000000 3.141593
v 0.051000 0.000250 0.020000
vn 6.283185 0.000000 0.000000
v 0.051000 0.000000 0.000000
vn 6.283185 0.000000 0.000000
v 0.051000 -0.000250 -0.010000
vn -3.141593 3.141593 0.000000
v -0.051000 0.000500 0.000000
vn 0.000000 0.000000 -6.283185
v -0.025500 0.000000 -0.020000
vn 0.000000 3.141593 -3.141591
v 0.000000 0.000500 -0.020000
vn 0.000000 6.283185 0.000000
v -0.025500 0.000500 0.000000
vn -3.141592 3.141593 0.000000
v -0.051000 0.000500 0.010000
vn 0.000000 -6.283185 0.000000
v 0.025500 -0.000500 -0.010000
vn -3.141593 0.000000 -3.141593
v -0.051000 0.000250 -0.020000
vn 3.141593 0.000000 -3.141590
v 0.051000 0.000250 -0.020000
vn -3.141591 0.000000 -3.141590
v -0.051000 0.000000 -0.020000
vn -3.141593 -3.141593 0.000000
v -0.051000 -0.000500 -0.010000
vn -3.141591 0.000000 3.141591
v -0.051000 0.000000 0.020000
vn 0.000000 0.000000 6.283185
v 0.000000 -0.000250 0.020000
vn 0.000000 -6.283186 0.000000
v 0.000000 -0.000500 0.000000
vn 3.141591 0.000000 -3.141593
v 0.051000 -0.000250 -0.020000
vn 0.000000 0.000000 -6.283183
v 0.000000 0.000000 -0.020000
vn 0.000000 0.000000 6.283184
v -0.025500 0.000250 0.020000
vn 6.283184 0.000000 0.000000
v 0.051000 0.000250 0.000000
vn 1.570796 1.570796 1.570795
v 0.051000 0.000500 0.020000
vn 0.000000 -6.283186 0.000000
v 0.000000 -0.000500 0.010000
vn 0.000000 3.141593 3.141590
v -0.025500 0.000500 0.020000
vn 6.283184 0.000000 0.000000
v 0.051000 0.000250 0.010000
vn 3.141593 3.141593 0.000000
v 0.051000 0.000500 -0.010000
vn 3.141593 -3.141593 0.000000
v 0.051000 -0.000500 0.000000
vn 0.000000 -3.141593 3.141591
v 0.000000 -0.000500 0.020000
vn 3.141592 -3.141593 0.000000
v 0.051000 -0.000500 0.010000
vn 0.000000 6.283186 0.000000
v -0.025500 0.000500 0.010000
vn 3.141593 0.000000 3.141593
v 0.051000 -0.000250 0.020000
vn 0.000000 0.000000 6.283184
v 0.000000 0.000250 0.020000
vn 0.000000 -3.141593 3.141593
v 0.025500 -0.000500 0.020000
vn 0.000000 0.000000 -6.283184
v 0.025500 -0.000250 -0.020000
vn -3.141591 -3.141593 0.000000
v -0.051000 -0.000500 0.000000
vn 0.000000 0.000000 -6.283184
v -0.025500 -0.000250 -0.020000
vn -6.283185 0.000000 0.000000
v -0.051000 0.000250 0.000000
vn 0.000000 0.000000 -6.283182
v 0.025500 0.000000 -0.020000
vn 3.141591 3.141593 0.000000
v 0.051000 0.000500 0.000000
vn 0.000000 -6.283185 0.000000
v -0.025500 -0.000500 0.010000
vn -6.283185 0.000000 0.000000
v -0.051000 0.000000 -0.010000
vn 0.000000 -6.283185 0.000000
v -0.025500 -0.000500 -0.010000
vn 0.000000 -6.283186 0.000000
v 0.025500 -0.000500 0.010000
vn 1.570795 -1.570796 1.570795
v 0.051000 -0.000500 0.020000
vn -1.570795 -1.570796 1.570796
v -0.051000 -0.000500 0.020000
vn 0.000000 6.283185 0.000000
v 0.000000 0.000500 -0.010000
vn 0.000000 -3.141593 -3.141593
v 0.000000 -0.000500 -0.020000
vn 6.283184 0.000000 0.000000
v 0.051000 -0.000250 0.010000
vn 6.283184 0.000000 0.000000
v 0.051000 0.000250 -0.010000
vn 3.141593 0.000000 -3.141593
v 0.051000 0.000000 -0.020000
vn 0.000000 0.000000 6.283184
v -0.025500 -0.000250 0.020000
vn 0.000000 6.283186 0.000000
v 0.025500 0.000500 0.000000
vn 0.000000 6.283186 0.000000
v 0.000000 0.000500 0.010000
vn 0.000000 0.000000 6.283185
v 0.025500 0.000000 0.020000
vn 0.000000 -6.283185 0.000000
v 0.025500 -0.000500 0.000000
vn -1.570795 1.570796 1.570796
v -0.051000 0.000500 0.020000
vn 6.283183 0.000000 0.000000
v 0.051000 0.000000 -0.010000
vn 0.000000 -3.141593 -3.141591
v 0.025500 -0.000500 -0.020000
vn -3.141593 3.141593 0.000000
v -0.051000 0.000500 -0.010000
vn 0.000000 0.000000 -6.283183
v -0.025500 0.000250 -0.020000
vn 0.000000 6.283186 0.000000
v -0.025500 0.000500 -0.010000
vn 0.000000 6.283186 0.000000
v 0.000000 0.000500 0.000000
vn 6.283182 0.000000 0.000000
v 0.051000 -0.000250 0.000000
vn 0.000000 0.000000 6.283181
v 0.025500 -0.000250 0.020000
vn -1.570795 -1.570796 -1.570795
v -0.051000 -0.000500 -0.020000
vn 0.000000 -3.141593 3.141591
v -0.025500 -0.000500 0.020000
vn -3.141593 0.000000 3.141591
v -0.051000 -0.000250 0.020000
vn 0.000000 -3.141593 -3.141591
v -0.025500 -0.000500 -0.020000
vn 1.570795 1.570796 -1.570796
v 0.051000 0.000500 -0.020000
vn -1.570795 1.570796 -1.570795
v -0.051000 0.000500 -0.020000
vn -6.283185 0.000000 0.000000
v -0.051000 -0.000250 0.000000
vn -6.283183 0.000000 0.000000
v -0.051000 0.000000 0.000000
vn 0.000000 3.141593 3.141593
v 0.025500 0.000500 0.020000
vn -6.283184 0.000000 0.000000
v -0.051000 0.000250 0.010000
vn 3.141592 -3.141593 0.000000
v 0.051000 -0.000500 -0.010000
vn 6.283184 0.000000 0.000000
v 0.051000 0.000000 0.010000
vn 0.000000 -6.283185 0.000000
v -0.025500 -0.000500 0.000000
vn -6.283184 0.000000 0.000000
v -0.051000 0.000250 -0.010000
vn 0.000000 3.141593 -3.141590
v 0.025500 0.000500 -0.020000
vn 3.141591 0.000000 3.141590
v 0.051000 0.000000 0.020000
vn -6.283182 0.000000 0.000000
v -0.051000 -0.000250 -0.010000
vn 0.000000 0.000000 -6.283181
v 0.000000 -0.000250 -0.020000
vn -3.141593 0.000000 3.141591
v -0.051000 0.000250 0.020000
vn 0.000000 3.141593 3.141591
v 0.000000 0.000500 0.020000
vn 0.000000 0.000000 6.283182
v 0.025500 0.000250 0.020000
vn 0.000000 0.000000 6.283181
v 0.000000 0.000000 0.020000
vn -6.283182 0.000000 0.000000
v -0.051000 -0.000250 0.010000
# 98 vertices, 0 vertices normals

f 46//46 53//53 88//88
f 79//79 53//53 76//76
f 47//47 79//79 76//76
f 58//58 79//79 93//93
f 76//76 53//53 25//25
f 58//58 53//53 79//79
f 47//47 76//76 4//4
f 82//82 83//83 92//92
f 25//25 46//46 92//92
f 25//25 53//53 46//46
f 47//47 24//24 17//17
f 53//53 1//1 28//28
f 47//47 30//30 93//93
f 47//47 93//93 79//79
f 17//17 30//30 47//47
f 24//24 47//47 4//4
f 92//92 83//83 52//52
f 24//24 4//4 92//92
f 53//53 58//58 1//1
f 76//76 25//25 92//92
f 46//46 82//82 92//92
f 4//4 76//76 92//92
f 52//52 24//24 92//92
f 88//88 53//53 28//28
f 86//86 74//74 38//38
f 58//58 69//69 21//21
f 69//69 86//86 21//21
f 61//61 29//29 45//45
f 29//29 61//61 68//68
f 14//14 74//74 68//68
f 69//69 29//29 5//5
f 86//86 69//69 5//5
f 29//29 86//86 5//5
f 45//45 93//93 49//49
f 58//58 93//93 69//69
f 69//69 93//93 45//45
f 86//86 15//15 74//74
f 61//61 45//45 49//49
f 86//86 66//66 21//21
f 29//29 69//69 45//45
f 15//15 29//29 68//68
f 86//86 29//29 15//15
f 66//66 86//86 38//38
f 74//74 15//15 68//68
f 1//1 58//58 21//21
f 21//21 66//66 28//28
f 1//1 21//21 28//28
f 93//93 30//30 49//49
f 30//30 17//17 71//71
f 30//30 71//71 10//10
f 72//72 57//57 18//18
f 9//9 72//72 18//18
f 9//9 18//18 71//71
f 81//81 70//70 72//72
f 71//71 18//18 10//10
f 57//57 72//72 73//73
f 70//70 48//48 16//16
f 17//17 24//24 71//71
f 89//89 70//70 81//81
f 9//9 81//81 72//72
f 72//72 19//19 73//73
f 24//24 52//52 89//89
f 89//89 81//81 22//22
f 81//81 9//9 71//71
f 48//48 89//89 83//83
f 19//19 70//70 16//16
f 71//71 24//24 22//22
f 52//52 83//83 89//89
f 70//70 19//19 72//72
f 48//48 70//70 89//89
f 81//81 71//71 22//22
f 24//24 89//89 22//22
f 57//57 8//8 90//90
f 18//18 57//57 90//90
f 80//80 23//23 90//90
f 8//8 57//57 63//63
f 23//23 3//3 90//90
f 50//50 37//37 63//63
f 18//18 90//90 10//10
f 37//37 80//80 90//90
f 60//60 32//32 68//68
f 61//61 60//60 68//68
f 60//60 61//61 23//23
f 60//60 23//23 80//80
f 63//63 57//57 73//73
f 60//60 37//37 50//50
f 32//32 60//60 50//50
f 3//3 23//23 49//49
f 32//32 14//14 68//68
f 37//37 60//60 80//80
f 8//8 37//37 90//90
f 37//37 8//8 63//63
f 10//10 3//3 49//49
f 90//90 3//3 10//10
f 23//23 61//61 49//49
f 30//30 10//10 49//49
f 56//56 78//78 98//98
f 83//83 82//82 98//98
f 56//56 77//77 78//78
f 12//12 56//56 98//98
f 62//62 26//26 78//78
f 51//51 46//46 88//88
f 56//56 51//51 77//77
f 39//39 62//62 77//77
f 97//97 62//62 27//27
f 34//34 39//39 51//51
f 83//83 98//98 6//6
f 12//12 46//46 51//51
f 46//46 12//12 98//98
f 51//51 39//39 77//77
f 97//97 11//11 62//62
f 26//26 6//6 98//98
f 77//77 62//62 78//78
f 62//62 39//39 27//27
f 56//56 12//12 51//51
f 26//26 62//62 11//11
f 34//34 51//51 88//88
f 78//78 26//26 98//98
f 82//82 46//46 98//98
f 34//34 88//88 28//28
f 40//40 66//66 38//38
f 74//74 40//40 38//38
f 44//44 54//54 55//55
f 42//42 75//75 55//55
f 75//75 97//97 27//27
f 39//39 75//75 27//27
f 97//97 75//75 65//65
f 44//44 75//75 39//39
f 40//40 55//55 54//54
f 74//74 14//14 87//87
f 59//59 40//40 74//74
f 59//59 74//74 87//87
f 54//54 66//66 40//40
f 44//44 39//39 54//54
f 40//40 59//59 55//55
f 66//66 34//34 28//28
f 59//59 42//42 55//55
f 75//75 44//44 55//55
f 54//54 39//39 34//34
f 66//66 54//54 34//34
f 65//65 75//75 91//91
f 75//75 42//42 91//91
f 42//42 59//59 91//91
f 59//59 87//87 91//91
f 31//31 35//35 94//94
f 41//41 64//64 73//73
f 41//41 35//35 95//95
f 64//64 2//2 63//63
f 85//85 26//26 94//94
f 33//33 84//84 96//96
f 19//19 41//41 73//73
f 95//95 84//84 64//64
f 85//85 20//20 48//48
f 85//85 67//67 20//20
f 85//85 83//83 6//6
f 96//96 97//97 65//65
f 85//85 6//6 26//26
f 41//41 19//19 20//20
f 14//14 32//32 87//87
f 41//41 67//67 35//35
f 35//35 67//67 94//94
f 67//67 41//41 20//20
f 26//26 31//31 94//94
f 83//83 85//85 48//48
f 96//96 65//65 91//91
f 36//36 50//50 7//7
f 96//96 84//84 95//95
f 84//84 33//33 7//7
f 36//36 32//32 50//50
f 20//20 19//19 16//16
f 48//48 20//20 16//16
f 36//36 33//33 13//13
f 31//31 11//11 97//97
f 97//97 96//96 43//43
f 96//96 95//95 43//43
f 33//33 96//96 13//13
f 31//31 97//97 43//43
f 95//95 35//35 43//43
f 35//35 31//31 43//43
f 2//2 84//84 7//7
f 33//33 36//36 7//7
f 13//13 96//96 91//91
f 41//41 95//95 64//64
f 84//84 2//2 64//64
f 32//32 36//36 87//87
f 31//31 26//26 11//11
f 2//2 7//7 63//63
f 7//7 50//50 63//63
f 67//67 85//85 94//94
f 87//87 36//36 91//91
f 36//36 13//13 91//91
f 64//64 63//63 73//73
# 192 faces, 0 coords texture

# End of File